<svg width="36" height="36" viewBox="0 0 36 36" fill="none" xmlns="http://www.w3.org/2000/svg">
<rect width="36" height="36" rx="18" fill="#808080" fill-opacity="0.1"/>
<path fill-rule="evenodd" clip-rule="evenodd" d="M10.2957 10.2957C10.6901 9.90142 11.3294 9.90142 11.7237 10.2957L25.7043 24.2763C26.0986 24.6706 26.0986 25.3099 25.7043 25.7043C25.3099 26.0986 24.6706 26.0986 24.2763 25.7043L10.2957 11.7237C9.90142 11.3294 9.90142 10.6901 10.2957 10.2957Z" fill="#808080"/>
<path fill-rule="evenodd" clip-rule="evenodd" d="M25.7043 10.2957C26.0986 10.6901 26.0986 11.3294 25.7043 11.7237L11.7237 25.7043C11.3294 26.0986 10.6901 26.0986 10.2957 25.7043C9.90142 25.3099 9.90142 24.6706 10.2957 24.2763L24.2763 10.2957C24.6706 9.90142 25.3099 9.90142 25.7043 10.2957Z" fill="#808080"/>
<rect x="0.8" y="0.8" width="34.4" height="34.4" rx="17.2" stroke="#808080" stroke-opacity="0.2" stroke-width="1.6"/>
</svg>
