<svg width="16" height="14" viewBox="0 0 16 14" fill="none" xmlns="http://www.w3.org/2000/svg">
<path d="M14.9555 5.87499L11.841 8.91099L12.5765 13.199C12.6085 13.3865 12.5315 13.576 12.3775 13.688C12.2905 13.7515 12.187 13.7835 12.0835 13.7835C12.004 13.7835 11.924 13.7645 11.851 13.726L7.99996 11.7015L4.14946 13.7255C3.98146 13.8145 3.77696 13.8 3.62296 13.6875C3.46896 13.5755 3.39196 13.386 3.42396 13.1985L4.15946 8.91049L1.04446 5.87499C0.908456 5.74199 0.858956 5.54299 0.917956 5.36249C0.976956 5.18199 1.13346 5.04949 1.32196 5.02199L5.62646 4.39699L7.55146 0.495993C7.71996 0.154493 8.27996 0.154493 8.44846 0.495993L10.3735 4.39699L14.678 5.02199C14.8665 5.04949 15.023 5.18149 15.082 5.36249C15.141 5.54349 15.0915 5.74149 14.9555 5.87499Z" fill="#099F56"/>
</svg>
